# xmcd
#
# Track frame offsets: 
#        150
#        24517
#        64472
#        83287
#        106265
#        129502
#        147547
#        165112
#
# Disc length: 2440 seconds
#
# Revision: 0
# Processed by: cddbd v1.5.1PL0 Copyright (c) Steve Scherf et al.
# Submitted via: ExactAudioCopy v0.95a5
#
DISCID=5e098608
DTITLE=Lisa Miller - Pushover
DYEAR=2004
DGENRE=
TTITLE0=Pushover
TTITLE1=Pushover (Version)
TTITLE2=Hold On [Live]
TTITLE3=Little Stars [Live]
TTITLE4=Pushover [Live]
TTITLE5=Eleven [Live]
TTITLE6=You Make Everybody Love You [Live]
TTITLE7=Hickory Wind
EXTD=
EXTT0=
EXTT1=
EXTT2=
EXTT3=
EXTT4=
EXTT5=
EXTT6=
EXTT7=
PLAYORDER=
